<svg xmlns="http://www.w3.org/2000/svg">
    <symbol id="check" viewBox="0 0 38 38" fill="none" xmlns="http://www.w3.org/2000/svg">
        <g clip-path="url(#clip0_12_8285)">
            <path d="M18.5973 0.669922C14.9191 0.669922 11.3235 1.76063 8.26519 3.80413C5.20688 5.84762 2.82323 8.75212 1.41564 12.1503C0.00805794 15.5485 -0.36023 19.2878 0.35735 22.8953C1.07493 26.5029 2.84615 29.8166 5.44702 32.4175C8.0479 35.0183 11.3616 36.7896 14.9691 37.5071C18.5767 38.2247 22.3159 37.8564 25.7142 36.4488C29.1124 35.0413 32.0169 32.6576 34.0604 29.5993C36.1038 26.541 37.1946 22.9454 37.1946 19.2672C37.1946 14.3349 35.2352 9.6046 31.7475 6.11694C28.2599 2.62927 23.5296 0.669922 18.5973 0.669922V0.669922ZM29.1667 14.7806L17.4969 28.0157C17.3086 28.2278 17.0802 28.4007 16.8249 28.5244C16.5696 28.6481 16.2924 28.7201 16.0092 28.7363H15.8697C15.3411 28.7396 14.8302 28.5462 14.4361 28.1939L8.19056 22.6535C7.76104 22.2722 7.50055 21.736 7.4664 21.1627C7.43225 20.5894 7.62723 20.026 8.00846 19.5965C8.38969 19.167 8.92593 18.9065 9.49921 18.8724C10.0725 18.8382 10.6359 19.0332 11.0654 19.4144L15.7147 23.5136L25.951 11.8903C26.3312 11.4597 26.8668 11.1978 27.4401 11.1622C28.0134 11.1266 28.5773 11.3202 29.0079 11.7004C29.4384 12.0806 29.7003 12.6163 29.7359 13.1896C29.7715 13.7629 29.5779 14.3268 29.1977 14.7574L29.1667 14.7806Z" fill="#ECCF4D"/>
        </g>
        <defs>
            <clipPath id="clip0_12_8285">
                <rect width="37.1946" height="37.1946" fill="white" transform="translate(0 0.669922)"/>
            </clipPath>
        </defs>
    </symbol>

    <symbol id="favorite" viewBox="0 0 24 24" xmlns="http://www.w3.org/2000/svg">
        <path fill-rule="evenodd" clip-rule="evenodd" d="M11.993 5.09691C11.0387 4.25883 9.78328 3.75 8.40796 3.75C5.42122 3.75 3 6.1497 3 9.10988C3 10.473 3.50639 11.7242 4.35199 12.67L12 20.25L19.4216 12.8944L19.641 12.6631C20.4866 11.7172 21 10.473 21 9.10988C21 6.1497 18.5788 3.75 15.592 3.75C14.2167 3.75 12.9613 4.25883 12.007 5.09692L12 5.08998L11.993 5.09691ZM12 7.09938L12.0549 7.14755L12.9079 6.30208L12.9968 6.22399C13.6868 5.61806 14.5932 5.25 15.592 5.25C17.763 5.25 19.5 6.99073 19.5 9.10988C19.5 10.0813 19.1385 10.9674 18.5363 11.6481L18.3492 11.8453L12 18.1381L5.44274 11.6391C4.85393 10.9658 4.5 10.0809 4.5 9.10988C4.5 6.99073 6.23699 5.25 8.40796 5.25C9.40675 5.25 10.3132 5.61806 11.0032 6.22398L11.0921 6.30203L11.9452 7.14752L12 7.09938Z"/>
    </symbol>

    <symbol id="hit" viewBox="0 0 24 24" fill="none" xmlns="http://www.w3.org/2000/svg">
        <rect width="24" height="24" rx="12" fill="#DF701A"/>
        <path d="M16.1934 9.35845C16.1244 9.29096 16.0299 9.24945 15.9259 9.24945C15.9014 9.24945 15.8774 9.25196 15.8539 9.25595L15.8564 9.25545C15.7324 9.28045 15.6319 9.36396 15.5839 9.47495L15.5829 9.47745C15.3509 10.0065 14.9984 10.4455 14.5589 10.774L14.5504 10.78C14.5869 10.535 14.6079 10.2525 14.6079 9.96545C14.6079 9.09045 14.4134 8.26095 14.0654 7.51745L14.0804 7.55295C13.4704 6.27946 12.4484 5.28446 11.1904 4.72396L11.1534 4.70946C11.1094 4.68996 11.0584 4.67896 11.0049 4.67896C10.7974 4.67896 10.6294 4.84696 10.6294 5.05446C10.6294 5.07696 10.6314 5.09896 10.6354 5.12045L10.6349 5.11796C10.6364 5.15596 10.6374 5.20096 10.6374 5.24596C10.6374 6.31395 10.1639 7.27146 9.41543 7.91996L9.41093 7.92395C9.14743 8.19095 8.86593 8.44345 8.58543 8.69595C7.94643 9.22496 7.39043 9.81995 6.91743 10.4785L6.89843 10.5065C6.37543 11.3575 6.06543 12.389 6.06543 13.492C6.06543 14.038 6.14143 14.5665 6.28343 15.0675L6.27343 15.027C6.64143 16.5325 7.56643 17.777 8.81193 18.556L8.83593 18.57C9.74443 19.15 10.8509 19.4975 12.0384 19.5035H12.0399C12.0419 19.5035 12.0449 19.5035 12.0474 19.5035C12.2999 19.5035 12.5489 19.487 12.7924 19.4545L12.7639 19.4575C15.0289 19.1265 16.8654 17.5835 17.6119 15.518L17.6254 15.476C17.8149 14.915 17.9239 14.269 17.9239 13.5975C17.9239 11.9465 17.2634 10.4495 16.1919 9.35695L16.1929 9.35795L16.1934 9.35845ZM16.9149 15.2355C16.2514 17.0765 14.6469 18.4255 12.6969 18.7105L12.6684 18.714C12.4804 18.738 12.2629 18.7515 12.0424 18.7515C10.9999 18.7515 10.0289 18.4465 9.21343 17.921L9.23393 17.9335C8.12743 17.243 7.32193 16.1585 7.00843 14.881L7.00143 14.847C6.88343 14.4415 6.81543 13.9755 6.81543 13.4935C6.81543 12.542 7.08043 11.652 7.54043 10.894L7.52793 10.9165C7.98343 10.2865 8.49693 9.73995 9.07243 9.26645L9.08743 9.25445C9.37943 8.99246 9.67143 8.72945 9.94593 8.45145C10.7189 7.74546 11.2484 6.78545 11.4029 5.70395L11.4059 5.67945C12.2739 6.19895 12.9589 6.94646 13.3884 7.83945L13.4014 7.86995C13.6899 8.48445 13.8584 9.20445 13.8584 9.96395C13.8584 10.479 13.7809 10.976 13.6369 11.444L13.6464 11.4085C13.6359 11.441 13.6304 11.4785 13.6304 11.5175C13.6304 11.7245 13.7984 11.8925 14.0054 11.8925C14.0559 11.8925 14.1044 11.8825 14.1479 11.8645L14.1454 11.8655C14.9329 11.539 15.5734 10.989 16.0039 10.2955L16.0134 10.2785C16.7374 11.178 17.1754 12.3345 17.1754 13.593C17.1754 14.1805 17.0799 14.7455 16.9039 15.274L16.9149 15.2365V15.2355Z" fill="white"/>
    </symbol>

    <symbol id="close" viewBox="-0.5 0 25 25" fill="none" xmlns="http://www.w3.org/2000/svg">
        <path d="M3 21.32L21 3.32001" stroke-width="1.5" stroke-linecap="round" stroke-linejoin="round"/>
        <path d="M3 3.32001L21 21.32" stroke-width="1.5" stroke-linecap="round" stroke-linejoin="round"/>
    </symbol>

    <symbol id="profile" viewBox="0 0 24 24" xmlns="http://www.w3.org/2000/svg">
        <path d="M14.3365 12.3466L14.0765 11.9195C13.9082 12.022 13.8158 12.2137 13.8405 12.4092C13.8651 12.6046 14.0022 12.7674 14.1907 12.8249L14.3365 12.3466ZM9.6634 12.3466L9.80923 12.8249C9.99769 12.7674 10.1348 12.6046 10.1595 12.4092C10.1841 12.2137 10.0917 12.022 9.92339 11.9195L9.6634 12.3466ZM4.06161 19.002L3.56544 18.9402L4.06161 19.002ZM19.9383 19.002L20.4345 18.9402L19.9383 19.002ZM16 8.5C16 9.94799 15.2309 11.2168 14.0765 11.9195L14.5965 12.7737C16.0365 11.8971 17 10.3113 17 8.5H16ZM12 4.5C14.2091 4.5 16 6.29086 16 8.5H17C17 5.73858 14.7614 3.5 12 3.5V4.5ZM7.99996 8.5C7.99996 6.29086 9.79082 4.5 12 4.5V3.5C9.23854 3.5 6.99996 5.73858 6.99996 8.5H7.99996ZM9.92339 11.9195C8.76904 11.2168 7.99996 9.948 7.99996 8.5H6.99996C6.99996 10.3113 7.96342 11.8971 9.40342 12.7737L9.92339 11.9195ZM9.51758 11.8683C6.36083 12.8309 3.98356 15.5804 3.56544 18.9402L4.55778 19.0637C4.92638 16.1018 7.02381 13.6742 9.80923 12.8249L9.51758 11.8683ZM3.56544 18.9402C3.45493 19.8282 4.19055 20.5 4.99996 20.5V19.5C4.70481 19.5 4.53188 19.2719 4.55778 19.0637L3.56544 18.9402ZM4.99996 20.5H19V19.5H4.99996V20.5ZM19 20.5C19.8094 20.5 20.545 19.8282 20.4345 18.9402L19.4421 19.0637C19.468 19.2719 19.2951 19.5 19 19.5V20.5ZM20.4345 18.9402C20.0164 15.5804 17.6391 12.8309 14.4823 11.8683L14.1907 12.8249C16.9761 13.6742 19.0735 16.1018 19.4421 19.0637L20.4345 18.9402Z"/>
    </symbol>

    <symbol id="check-outline" viewBox="0 0 32 32" version="1.1" xmlns="http://www.w3.org/2000/svg">
        <path d="M16 0c-8.836 0-16 7.163-16 16s7.163 16 16 16c8.837 0 16-7.163 16-16s-7.163-16-16-16zM16 30.032c-7.72 0-14-6.312-14-14.032s6.28-14 14-14 14 6.28 14 14-6.28 14.032-14 14.032zM22.386 10.146l-9.388 9.446-4.228-4.227c-0.39-0.39-1.024-0.39-1.415 0s-0.391 1.023 0 1.414l4.95 4.95c0.39 0.39 1.024 0.39 1.415 0 0.045-0.045 0.084-0.094 0.119-0.145l9.962-10.024c0.39-0.39 0.39-1.024 0-1.415s-1.024-0.39-1.415 0z"></path>
    </symbol>

    <symbol id="burger" viewBox="0 0 37 25" fill="none" xmlns="http://www.w3.org/2000/svg">
        <line y1="1.5" x2="37" y2="1.5" stroke-width="3"/>
        <line y1="11.9541" x2="37" y2="11.9541" stroke-width="3"/>
        <line y1="23.4541" x2="37" y2="23.4541" stroke-width="3"/>
    </symbol>

    <symbol id="arrow-long" viewBox="0 0 28 19" xmlns="http://www.w3.org/2000/svg">
        <path d="M18.9127 18.8282C18.4597 18.8282 18.1577 18.6772 17.8556 18.3751C17.2516 17.7711 17.2516 16.865 17.8556 16.2609L25.4063 8.7103C26.0103 8.10625 26.9164 8.10625 27.5205 8.7103C28.1245 9.31435 28.1245 10.2204 27.5205 10.8245L19.9698 18.3751C19.6678 18.6772 19.3658 18.8282 18.9127 18.8282Z"/>
        <path d="M26.4634 11.2775C26.0103 11.2775 25.7083 11.1265 25.4063 10.8245L17.8556 3.27382C17.2516 2.66977 17.2516 1.76369 17.8556 1.15964C18.4597 0.555591 19.3658 0.555591 19.9698 1.15964L27.5205 8.71029C28.1245 9.31434 28.1245 10.2204 27.5205 10.8245C27.2184 11.1265 26.9164 11.2775 26.4634 11.2775Z"/>
        <path d="M26.4627 11.2775H2.30066C1.39458 11.2775 0.790527 10.6735 0.790527 9.76739C0.790527 8.86131 1.39458 8.25726 2.30066 8.25726H26.4627C27.3688 8.25726 27.9729 8.86131 27.9729 9.76739C27.9729 10.6735 27.3688 11.2775 26.4627 11.2775Z"/>
    </symbol>

    <symbol id="arrow" viewBox="0 0 27 26" fill="none" xmlns="http://www.w3.org/2000/svg">
        <g clip-path="url(#clip0_12_8484)">
            <path d="M11.1764 6.44214L9.66418 7.95439L14.5763 12.8772L9.66418 17.8001L11.1764 19.3123L17.6115 12.8772L11.1764 6.44214Z" fill="black"/>
        </g>
        <defs>
            <clipPath id="clip0_12_8484">
                <rect width="25.7404" height="25.7404" fill="white" transform="translate(0.451416 0.00708008)"/>
            </clipPath>
        </defs>
    </symbol>

    <symbol id="search" viewBox="0 0 24 24" fill="none" xmlns="http://www.w3.org/2000/svg">
        <circle cx="11.5" cy="11.5" r="7" stroke="white"/>
        <line x1="20.6464" y1="20.3536" x2="16.6464" y2="16.3536" stroke="white"/>
    </symbol>

    <symbol id="male" viewBox="0 0 106 105" fill="none" xmlns="http://www.w3.org/2000/svg">
        <path d="M92.1444 86.7267L87.1886 69.9273C85.8707 65.5769 83.1766 61.7716 79.5111 59.0831C75.8457 56.3946 71.4068 54.9681 66.8614 55.0179H64.9295C68.3862 52.6275 71.2019 49.4235 73.1281 45.6882C75.0543 41.9529 76.0321 37.801 75.9751 33.5987C76.2253 27.1803 73.9216 20.9243 69.5684 16.2011C65.2152 11.4779 59.1674 8.6726 52.7499 8.39966C46.3437 8.69424 40.3132 11.5075 35.9713 16.227C31.6293 20.9465 29.3275 27.1902 29.5668 33.5987C29.5182 37.8042 30.5039 41.9571 32.4373 45.6921C34.3707 49.4271 37.1925 52.6296 40.6544 55.0179H38.6805C34.135 54.9681 29.6962 56.3946 26.0307 59.0831C22.3653 61.7716 19.6712 65.5769 18.3532 69.9273L13.3554 86.7267C13.054 87.7769 13.1381 88.9002 13.5925 89.8938C14.0469 90.8874 14.8417 91.6857 15.8333 92.1445C27.5393 97.124 40.0419 99.9687 52.7499 100.544H52.9599C65.5959 99.9368 78.0239 97.0929 89.6665 92.1445C90.6639 91.6926 91.4642 90.8952 91.9197 89.8994C92.3751 88.9037 92.4549 87.7767 92.1444 86.7267ZM52.33 62.0316L48.9281 59.0917H55.7318L52.33 62.0316ZM62.1156 59.0917H66.3154L60.6036 70.0953L55.2698 65.1395L62.1156 59.0917ZM52.7499 12.5995C56.6309 12.6986 60.3897 13.9774 63.5258 16.2658C66.6619 18.5541 69.0267 21.7434 70.3053 25.409C68.3899 25.7666 66.4249 25.7666 64.5095 25.409C61.8548 24.7788 59.4002 23.4938 57.3698 21.6712C56.9858 21.3536 56.5031 21.1799 56.0048 21.1799C55.5065 21.1799 55.0239 21.3536 54.6399 21.6712C51.9531 23.8585 48.7869 25.3792 45.4001 26.1091C42.0133 26.839 38.5019 26.7574 35.1526 25.871C36.3617 22.1157 38.701 18.8255 41.8507 16.45C45.0005 14.0745 48.807 12.7298 52.7499 12.5995ZM33.7667 33.5987C33.7398 32.1928 33.8382 30.7873 34.0607 29.3989C36.3105 29.9804 38.6246 30.2767 40.9484 30.2808C43.4986 30.3766 46.0484 30.0791 48.5081 29.3989C51.1481 28.6146 53.6442 27.4092 55.8998 25.829C58.1558 27.564 60.7651 28.7826 63.5435 29.3989C66.1877 29.9626 68.921 29.9626 71.5652 29.3989C71.785 30.6893 71.8973 31.9957 71.9012 33.3047C72.1526 38.6097 70.2917 43.7981 66.7258 47.7339C63.16 51.6697 58.1799 54.0321 52.8759 54.3039C47.6139 54.0424 42.6644 51.727 39.0912 47.8554C35.518 43.9837 33.6062 38.8648 33.7667 33.5987ZM42.6283 59.2177L49.6841 65.3495L44.8122 70.1793L38.5545 59.0917H42.5443L42.6283 59.2177ZM17.4293 88.0286L22.4271 71.2293C23.2689 68.5153 24.7854 66.0592 26.8346 64.0907C28.8839 62.1222 31.399 60.7057 34.1447 59.9737L42.5443 74.7991C42.7193 75.0697 42.9472 75.3022 43.2142 75.4826C43.4812 75.663 43.7819 75.7877 44.0983 75.8491H44.3923C44.6677 75.8525 44.9407 75.7981 45.1939 75.6897C45.447 75.5812 45.6747 75.4209 45.8622 75.2191L50.566 70.1373L50.776 96.1763C39.3664 95.3593 28.1701 92.6631 17.6393 88.1966C17.6393 88.1966 17.3033 88.1966 17.3873 87.9026L17.4293 88.0286ZM87.9026 88.1966C77.4225 92.5214 66.3233 95.158 55.0179 96.0083L54.7659 70.5573L59.5957 75.0511C59.9923 75.396 60.4981 75.5894 61.0236 75.5971H61.4016C61.7166 75.5474 62.0149 75.4221 62.2709 75.2319C62.5269 75.0417 62.733 74.7924 62.8716 74.5052L70.6413 59.5957C73.5679 60.2065 76.2786 61.5872 78.4934 63.5953C80.7083 65.6034 82.3471 68.1663 83.2408 71.0193L88.1966 87.8186C88.1988 87.9059 88.1707 87.9912 88.1171 88.0601C88.0635 88.129 87.9877 88.1773 87.9026 88.1966Z" fill="white"/>
    </symbol>

    <symbol id="tg" viewBox="0 0 192 192" xmlns="http://www.w3.org/2000/svg" fill="none">
        <path stroke="black" stroke-width="12" d="M23.073 88.132s65.458-26.782 88.16-36.212c8.702-3.772 38.215-15.843 38.215-15.843s13.621-5.28 12.486 7.544c-.379 5.281-3.406 23.764-6.433 43.756-4.54 28.291-9.459 59.221-9.459 59.221s-.756 8.676-7.188 10.185c-6.433 1.509-17.027-5.281-18.919-6.79-1.513-1.132-28.377-18.106-38.214-26.404-2.649-2.263-5.676-6.79.378-12.071 13.621-12.447 29.891-27.913 39.728-37.72 4.54-4.527 9.081-15.089-9.837-2.264-26.864 18.483-53.35 35.835-53.35 35.835s-6.053 3.772-17.404.377c-11.351-3.395-24.594-7.921-24.594-7.921s-9.08-5.659 6.433-11.693Z"/>
    </symbol>

    <symbol id="yt" viewBox="0 0 28 28" fill="none" xmlns="http://www.w3.org/2000/svg">
        <path d="M16.2085 14.0747L12.1704 16.3821V11.7672L16.2085 14.0747Z" stroke="black" stroke-width="1.7306" stroke-linecap="round" stroke-linejoin="round"/>
        <path d="M2.36304 14.8904V13.2578C2.36304 9.91778 2.36304 8.24717 3.40716 7.17305C4.45244 6.09777 6.09766 6.05162 9.38695 5.95817C10.9445 5.91433 12.5366 5.88318 13.9003 5.88318C15.2629 5.88318 16.8551 5.91433 18.4137 5.95817C21.703 6.05162 23.3482 6.09777 24.3924 7.17305C25.4377 8.24717 25.4377 9.91893 25.4377 13.2578V14.8904C25.4377 18.2316 25.4377 19.901 24.3935 20.9763C23.3482 22.0504 21.7042 22.0977 18.4137 22.19C16.8562 22.235 15.2641 22.2662 13.9003 22.2662C12.3956 22.2616 10.891 22.2363 9.38695 22.19C6.09766 22.0977 4.45244 22.0516 3.40716 20.9763C2.36304 19.901 2.36304 18.2304 2.36304 14.8915V14.8904Z" stroke="black" stroke-width="1.7306"/>
    </symbol>

    <symbol id="earn" xmlns="http://www.w3.org/2000/svg" xmlns:xlink="http://www.w3.org/1999/xlink" viewBox="0 0 209 256">
        <path d="M120.523,2l-1.877,23.625H96.625v78.681h-2.458c-14.746,0-28.129,8.628-34.214,22.06L2.125,254h78.75l5.07-16.892
            C122.588,225.945,132.216,191,132.216,191h51.034v-18.12l10.529,0.837L206.875,8.861L120.523,2z M175.375,166.606
            c-7.757,2.097-13.697,8.53-15.077,16.519h-44.767c-2.957,15.124-14.146,28.884-29.224,35.043c-0.487,0.199-0.992,0.293-1.488,0.293
            c-1.552,0-3.023-0.924-3.647-2.449c-0.822-2.013,0.143-4.311,2.156-5.134c14.782-6.038,25.106-20.689,25.106-35.628
            c0-0.007,0.002-3.938,0.002-3.938h40.032c5.948,0,11.048-4.654,11.154-10.601c0.108-6.056-4.765-10.996-10.797-11.006l-70.906-0.049
            c-2.174,0-3.938-1.763-3.938-3.938s1.763-3.938,3.938-3.938h26.58V49.236c7.999-1.632,14.288-7.837,16.1-15.736h38.987
            c1.791,7.83,7.972,13.941,15.789,15.668V166.606z M187.86,148.775c-1.608,0.301-3.149,0.796-4.61,1.446V25.625h-53.998
            c6.856-1.808,12.395-7.039,14.546-13.876l38.864,3.088c1.166,7.947,6.842,14.528,14.498,16.868L187.86,148.775z M167.696,107.404
            c0.028-15.077-12.011-27.764-27.692-27.793c-15.077-0.028-27.766,12.614-27.793,27.692c-0.028,15.077,12.011,27.764,27.692,27.793
            C154.98,135.124,167.668,122.482,167.696,107.404z M123.666,109.737l-4.825-0.009l0.01-5.428l4.222,0.008
            c0.004-2.413,1.216-5.426,1.823-7.837l6.028,1.821c-0.605,1.205-1.213,3.616-1.22,7.235c-0.005,3.015,1.197,4.827,3.007,4.831
            s3.019-1.804,4.836-6.022c2.423-6.027,4.841-9.038,9.666-9.028c4.221,0.611,7.832,4.236,9.031,9.063l4.825,0.009l-0.01,5.428
            l-4.222-0.008c-0.005,2.413-1.22,7.235-1.826,9.043l-6.028-1.821c1.21-1.807,2.422-5.423,2.428-8.439
            c0.006-3.619-1.196-5.43-3.609-5.434c-1.809-0.004-3.018,1.201-4.835,5.419c-1.819,5.424-4.842,9.641-9.667,9.632
            C128.475,118.189,124.861,115.166,123.666,109.737z"/>
    </symbol>

    <symbol id="analysis" fill="#000000" viewBox="0 0 16 16" xmlns="http://www.w3.org/2000/svg">
        <path id="Path_153" data-name="Path 153" d="M-7.5,8A.5.5,0,0,0-7,7.5v-3a.5.5,0,0,0-.038-.191.506.506,0,0,0-.271-.271A.5.5,0,0,0-7.5,4h-3a.5.5,0,0,0-.5.5.5.5,0,0,0,.5.5h1.793L-14.5,10.793l-1.646-1.647a.5.5,0,0,0-.708,0L-22,14.293V.5a.5.5,0,0,0-.5-.5.5.5,0,0,0-.5.5v15a.5.5,0,0,0,.038.191.506.506,0,0,0,.271.271A.5.5,0,0,0-22.5,16h15a.5.5,0,0,0,.5-.5.5.5,0,0,0-.5-.5H-21.293l4.793-4.793,1.646,1.647A.5.5,0,0,0-14.5,12a.5.5,0,0,0,.354-.146L-8,5.707V7.5A.5.5,0,0,0-7.5,8Z" transform="translate(23)"/>
    </symbol>

    <symbol id="notification" viewBox="0 0 24 24" xmlns="http://www.w3.org/2000/svg">
        <path d="M7.81269 11.805L8.48873 12.1298C8.53741 12.0284 8.56269 11.9174 8.56269 11.805H7.81269ZM6.82501 13.861L6.14897 13.5362C6.08961 13.6598 6.06525 13.7973 6.07855 13.9338L6.82501 13.861ZM8.24851 15.73L8.56851 15.0517C8.54848 15.0422 8.52805 15.0337 8.50727 15.0261L8.24851 15.73ZM11.7644 16.53L11.7601 17.28L11.7686 17.28L11.7644 16.53ZM15.2802 15.73L14.9707 15.0468L14.9602 15.0517L15.2802 15.73ZM16.3264 14.916L16.9113 15.3855C16.9407 15.3489 16.9666 15.3096 16.9886 15.2681L16.3264 14.916ZM16.2094 12.833L15.5231 13.1354C15.542 13.1783 15.5649 13.2194 15.5914 13.258L16.2094 12.833ZM15.6449 10.664L16.3915 10.593C16.3907 10.5849 16.3898 10.5768 16.3888 10.5687L15.6449 10.664ZM11.7644 19L11.754 19.7499C11.7609 19.75 11.7678 19.75 11.7747 19.7499L11.7644 19ZM11.7634 5.897C10.1522 5.897 8.93413 6.59555 8.14766 7.73144C7.38524 8.8326 7.06269 10.2897 7.06269 11.805H8.56269C8.56269 10.4733 8.85049 9.3514 9.38091 8.58531C9.88729 7.85395 10.6446 7.397 11.7634 7.397V5.897ZM7.13665 11.4802L6.14897 13.5362L7.50105 14.1858L8.48873 12.1298L7.13665 11.4802ZM6.07855 13.9338C6.18878 15.0647 6.92546 16.0427 7.98975 16.4339L8.50727 15.0261C7.99879 14.8391 7.62744 14.3624 7.57147 13.7882L6.07855 13.9338ZM7.92852 16.4083C9.12988 16.9751 10.4363 17.2725 11.7601 17.28L11.7686 15.78C10.6642 15.7738 9.57324 15.5257 8.56851 15.0517L7.92852 16.4083ZM11.7686 17.28C13.0925 17.2725 14.3988 16.9751 15.6002 16.4083L14.9602 15.0517C13.9555 15.5257 12.8645 15.7738 11.7601 15.78L11.7686 17.28ZM15.5897 16.4132C16.1041 16.1801 16.5564 15.8276 16.9113 15.3855L15.7415 14.4465C15.5324 14.7071 15.2681 14.9121 14.9707 15.0468L15.5897 16.4132ZM16.9886 15.2681C17.4707 14.3614 17.4092 13.254 16.8273 12.408L15.5914 13.258C15.8552 13.6415 15.8844 14.1496 15.6642 14.5639L16.9886 15.2681ZM16.8957 12.5306C16.6257 11.9178 16.4553 11.2632 16.3915 10.593L14.8982 10.735C14.9771 11.5644 15.1881 12.3752 15.5231 13.1354L16.8957 12.5306ZM16.3888 10.5687C16.2291 9.32169 15.8062 8.15798 15.0356 7.29412C14.247 6.41001 13.1429 5.897 11.7634 5.897V7.397C12.7365 7.397 13.426 7.74299 13.9163 8.29263C14.4246 8.86252 14.7662 9.70731 14.9009 10.7593L16.3888 10.5687ZM12.5134 6.647V5H11.0134V6.647H12.5134ZM8.85395 18.7845C9.70153 19.3981 10.7125 19.7355 11.754 19.7499L11.7747 18.2501C11.0449 18.24 10.3332 18.0036 9.73348 17.5695L8.85395 18.7845ZM11.7747 19.7499C12.8162 19.7355 13.8272 19.3981 14.6748 18.7845L13.7952 17.5695C13.1955 18.0036 12.4839 18.24 11.754 18.2501L11.7747 19.7499Z" />
    </symbol>

    <symbol id="time" viewBox="0 0 24 24" fill="none" xmlns="http://www.w3.org/2000/svg">
        <path d="M12 8V12L15 15" stroke-width="2" stroke-linecap="round"/>
        <path d="M12 21C16.9706 21 21 16.9706 21 12C21 7.02944 16.9706 3 12 3C7.02944 3 3 7.02944 3 12C3 16.9706 7.02944 21 12 21Z" stroke-width="2"/>
    </symbol>

    <symbol id="money" viewBox="0 0 22 22" fill="none" xmlns="http://www.w3.org/2000/svg">
        <g clip-path="url(#clip0_2117_928)">
            <path d="M11.0002 20.1667C16.0628 20.1667 20.1668 16.0627 20.1668 11C20.1668 5.93743 16.0628 1.83337 11.0002 1.83337C5.93755 1.83337 1.8335 5.93743 1.8335 11C1.8335 16.0627 5.93755 20.1667 11.0002 20.1667Z" stroke-width="2"/>
            <path d="M13.75 9.1183C13.2917 8.52496 12.65 7.79163 11 7.79163C9.35 7.79163 8.25 8.72106 8.25 9.1183C8.25 9.51551 8.31221 10.017 9.16667 10.5416C9.85618 10.9649 11.6127 11.0402 12.375 11.4583C13.4558 12.0511 13.6122 12.6685 13.6122 12.8811C13.6122 13.46 12.2994 14.1947 11 14.2083C9.658 14.2223 8.70833 13.475 8.25 12.8811" stroke-linecap="round" stroke-linejoin="round"/>
            <path d="M11 6.41663V15.5833" stroke-linecap="round" stroke-linejoin="round"/>
        </g>
    </symbol>

    <symbol id="arrow-follow" viewBox="0 0 18 18" fill="none" xmlns="http://www.w3.org/2000/svg">
        <path d="M5.25 11.25L11.25 5.25M11.25 5.25H5.85M11.25 5.25V10.65" stroke-width="2" stroke-linecap="round" stroke-linejoin="round"/>
    </symbol>

    <symbol id="sort" viewBox="0 0 24 24" xmlns="http://www.w3.org/2000/svg">
        <path d="M5.47719 7.96225C5.1802 8.25099 5.17351 8.72582 5.46225 9.02281C5.75099 9.3198 6.22582 9.32649 6.52281 9.03775L5.47719 7.96225ZM9.6 5H10.35C10.35 4.69857 10.1695 4.42644 9.89188 4.30913C9.61422 4.19182 9.29331 4.25214 9.07719 4.46225L9.6 5ZM8.85 19C8.85 19.4142 9.18579 19.75 9.6 19.75C10.0142 19.75 10.35 19.4142 10.35 19H8.85ZM18.5228 16.0377C18.8198 15.749 18.8265 15.2742 18.5377 14.9772C18.249 14.6802 17.7742 14.6735 17.4772 14.9623L18.5228 16.0377ZM14.4 19H13.65C13.65 19.3014 13.8305 19.5736 14.1081 19.6909C14.3858 19.8082 14.7067 19.7479 14.9228 19.5377L14.4 19ZM15.15 5C15.15 4.58579 14.8142 4.25 14.4 4.25C13.9858 4.25 13.65 4.58579 13.65 5H15.15ZM6.52281 9.03775L10.1228 5.53775L9.07719 4.46225L5.47719 7.96225L6.52281 9.03775ZM8.85 5V19H10.35V5H8.85ZM17.4772 14.9623L13.8772 18.4623L14.9228 19.5377L18.5228 16.0377L17.4772 14.9623ZM15.15 19V5H13.65V19H15.15Z" />
    </symbol>
</svg>